<svg viewBox="0 0 50 47" fill="none" xmlns="http://www.w3.org/2000/svg">
<path fill-rule="evenodd" clip-rule="evenodd" d="M43.6875 7.30163L42.6594 7.14791L42.3896 6.20203L43.9406 5.81036L43.6875 7.30163ZM29.9167 20.8435L29.0302 21.3566L29.0281 21.3546L29.025 21.3497L29.0146 21.3341L28.9792 21.2783L28.8542 21.0756C28.7084 20.8358 28.5677 20.5932 28.4323 20.3481C28.0035 19.5775 27.6297 18.781 27.3135 17.9638C26.9615 17.0394 26.6594 15.981 26.6125 14.9568C26.5667 13.9365 26.7688 12.829 27.5771 11.9605C28.3031 11.1811 29.6719 10.4634 31.1104 9.84257C32.601 9.1973 34.3552 8.57847 36.0167 8.04286C38.0747 7.38233 40.1534 6.78019 42.25 6.23728L42.3542 6.20986L42.3906 6.20007L42.6615 7.14693L43.6896 7.30066L43.6833 7.33688L43.6656 7.44068C43.5616 8.04138 43.4526 8.6413 43.3385 9.24038C43.061 10.7136 42.7582 12.1826 42.4302 13.6466C42.0594 15.2926 41.6281 17.0179 41.1708 18.4622C40.9671 19.1225 40.7283 19.7729 40.4552 20.4107C40.2177 20.9493 39.9365 21.4721 39.5948 21.8403C38.8635 22.6256 37.725 22.8714 36.7302 22.934C35.6927 22.9996 34.5427 22.8812 33.5083 22.7088C32.5858 22.5527 31.6722 22.3534 30.7708 22.1115C30.402 22.0139 30.0353 21.9094 29.6708 21.7982L29.6052 21.7767L29.5875 21.7708L29.5823 21.7698H29.5802L29.9167 20.8435ZM29.9167 20.8435L29.0302 21.3566L29.226 21.6552L29.5802 21.7698L29.9167 20.8435ZM30.6167 20.0279C31.6835 20.3397 32.7691 20.5914 33.8677 20.7818C34.8302 20.9414 35.7927 21.0315 36.5906 20.9806C37.4333 20.9277 37.8563 20.7338 38.026 20.5517C38.1344 20.4342 38.3115 20.1561 38.5302 19.6607C38.7754 19.0859 38.9899 18.4999 39.1729 17.905C39.6073 16.5342 40.025 14.8667 40.3917 13.2422C40.7436 11.6706 41.0658 10.0933 41.3583 8.51091L41.0365 8.59903C39.8812 8.91922 38.3208 9.37061 36.6927 9.89545C35.0615 10.4213 33.3812 11.0156 31.9802 11.6217C30.526 12.2503 29.5448 12.8212 29.1448 13.2511C28.825 13.5938 28.6604 14.1215 28.6948 14.8726C28.7281 15.6197 28.9562 16.4686 29.275 17.3019C29.6389 18.2448 30.0877 19.1567 30.6167 20.0279ZM10.6906 9.7662L10.4208 10.7121L9.39167 10.8658L9.13958 9.37551L10.6906 9.7662ZM20.776 21.8423L21.6625 22.3544L21.6646 22.3524L21.6667 22.3485L21.675 22.3358L21.7052 22.2888L21.8094 22.1223C22.3075 21.3047 22.7309 20.4487 23.075 19.5637C23.3646 18.8039 23.6167 17.9236 23.6552 17.0659C23.6948 16.2111 23.526 15.2574 22.824 14.5034C22.2031 13.8356 21.0542 13.2403 19.8875 12.735C18.6677 12.2073 17.2354 11.702 15.8823 11.2663C14.2063 10.7288 12.5135 10.2386 10.8062 9.79655L10.7208 9.77403L10.6906 9.7662L10.4208 10.7121L9.39167 10.8658L9.39687 10.8952L9.41146 10.9804L9.46771 11.2996C9.7487 12.8834 10.0651 14.4615 10.4167 16.0329C10.7188 17.3724 11.0708 18.7794 11.4438 19.9593C11.6313 20.5488 11.8271 21.0981 12.0323 21.5612C12.2271 22.0019 12.4656 22.4513 12.7656 22.7725C13.4115 23.4677 14.4042 23.6733 15.226 23.7242C16.0927 23.7791 17.0437 23.6802 17.8927 23.5401C18.9588 23.361 20.0101 23.111 21.0385 22.7921L21.0917 22.7754L21.1073 22.7705L21.1125 22.7686L20.776 21.8423ZM20.776 21.8423L21.6625 22.3544L21.4667 22.654L21.1125 22.7686L20.776 21.8423ZM20.075 21.0256C20.141 20.9147 20.2181 20.7799 20.3062 20.6212C20.5542 20.1728 20.8625 19.5618 21.1135 18.9018C21.3687 18.234 21.5479 17.5633 21.574 16.9827C21.601 16.3961 21.4698 16.0231 21.2562 15.792C20.9615 15.4767 20.201 15.0263 19.0167 14.5142C17.8875 14.0256 16.5292 13.5448 15.2062 13.1189C14.0539 12.749 12.8932 12.4022 11.725 12.079L11.7292 12.1035C11.9063 13.0435 12.1583 14.3125 12.4552 15.6275C12.7521 16.9454 13.0906 18.2938 13.4406 19.4012C13.6167 19.9554 13.7896 20.4342 13.9562 20.8102C14.1333 21.2087 14.2667 21.4114 14.3333 21.4839C14.4188 21.5749 14.6948 21.7287 15.3656 21.7708C15.9917 21.8099 16.7562 21.7394 17.5312 21.6112C18.3914 21.466 19.241 21.2711 20.075 21.0256ZM17.7938 30.36C17.5292 30.3737 17.4 30.409 17.3667 30.4227C16.8948 30.6234 15.4615 31.0934 14.224 31.49C13.5885 31.6946 12.9792 31.8865 12.5292 32.0285L12.5 32.0383V37.3288C12.6833 37.3209 12.8802 37.3141 13.0812 37.3072C13.9437 37.2778 14.9698 37.2485 15.4146 37.2661C17.2813 37.3356 18.6833 37.7508 19.9812 38.1356L20.0094 38.1444C21.226 38.5047 22.3531 38.8357 23.8292 38.9405C24.2458 38.9698 24.651 39.008 25.0292 39.0433H25.0344C26.4865 39.1804 27.4427 39.2489 28.1833 38.9963C28.7594 38.7995 30.8687 37.88 32.9958 36.8744C34.0479 36.377 35.0792 35.8708 35.899 35.437C36.3104 35.2196 36.6594 35.0258 36.9271 34.8632C37.0597 34.7823 37.1667 34.7137 37.2479 34.6576L37.3417 34.5891L37.3708 34.5655C37.475 34.4667 37.5854 34.122 37.4062 33.7979C37.3219 33.6463 37.1826 33.5282 37.0135 33.465C36.8052 33.3798 36.451 33.3142 35.8885 33.4013C34.6198 33.5972 33.1042 34.1709 31.5906 34.7496L31.5698 34.7584C30.826 35.0424 30.0802 35.3273 29.4187 35.5349C28.7833 35.7337 28.0781 35.9119 27.4635 35.8776C26.6198 35.8287 25.1396 35.6231 23.9187 35.437C23.2172 35.3304 22.5165 35.2187 21.8167 35.1021L21.6812 35.0796L21.6333 35.0708L21.8312 33.1281L26.5917 33.182H26.6021C26.6577 33.1764 26.7127 33.1665 26.7667 33.1526C26.9312 33.1134 27.2135 33.0165 27.5687 32.7805C27.6781 32.7071 27.8219 32.572 27.9562 32.3908C28.0118 32.3151 28.059 32.2413 28.0979 32.1695C27.5176 32.1344 26.9409 32.0578 26.3729 31.9404C26.0637 31.8771 25.7569 31.8036 25.4531 31.7201L25.4177 31.7103L19.5875 30.4903L19.5323 30.4814L19.3135 30.4501C19.0753 30.4172 18.8359 30.392 18.5958 30.3747C18.3291 30.3537 18.0612 30.3488 17.7938 30.36ZM19.7917 29.5317L19.9802 28.5691L19.999 28.5721L25.9552 29.8176L25.999 29.8303L26.0073 29.8332L26.0469 29.844L26.2115 29.8881C26.3562 29.9253 26.5646 29.9762 26.8125 30.0271C27.3187 30.1299 27.9521 30.2249 28.5375 30.2249C29.124 30.2249 29.7615 30.4305 30.1052 31.0161C30.399 31.5174 30.326 32.0599 30.2229 32.4182C30.127 32.735 29.9843 33.0376 29.799 33.3171C30.1163 33.1996 30.4517 33.073 30.8052 32.9372L30.8698 32.9117C32.3052 32.3634 34.026 31.7054 35.55 31.4694C37.3208 31.1972 38.649 31.7945 39.2562 32.899C39.7917 33.8733 39.6729 35.1579 38.8552 35.9393C38.65 36.1352 38.3448 36.3339 38.0531 36.5112C37.6816 36.7321 37.3037 36.9433 36.9198 37.1447C36.0604 37.599 34.9969 38.1209 33.9302 38.6252C31.824 39.621 29.6052 40.5953 28.8927 40.8381C27.6573 41.2591 26.2281 41.125 24.9583 41.0055L24.826 40.9928C24.4418 40.9558 24.057 40.9231 23.6719 40.8949C21.9427 40.7715 20.6177 40.3789 19.4073 40.0205L19.3813 40.0127C18.0792 39.6269 16.9063 39.2832 15.3313 39.2234C14.9854 39.2107 14.0542 39.2342 13.1563 39.2655C12.6506 39.2828 12.145 39.302 11.6396 39.3233L11.5052 39.3292L10.4156 39.3762V30.6264L11.3292 30.3414C12.0704 30.1099 12.8107 29.8755 13.55 29.6384C14.8458 29.2222 16.1521 28.7904 16.5083 28.6396C16.8906 28.4771 17.325 28.4242 17.6729 28.4046C18.0427 28.3851 18.4229 28.3997 18.7552 28.4232C19.1551 28.4533 19.5534 28.5 19.949 28.5633L19.9708 28.5672H19.9771L19.9792 28.5682H19.9812L19.7917 29.5317Z" fill="#ffff"/>
<path fill-rule="evenodd" clip-rule="evenodd" d="M36.6146 12.9642C36.7186 13.0477 36.804 13.1498 36.866 13.2644C36.928 13.379 36.9654 13.504 36.9761 13.6322C36.9867 13.7604 36.9704 13.8893 36.928 14.0116C36.8857 14.1338 36.8181 14.2471 36.7292 14.3448C33.624 17.7503 29.7583 22.7411 28.0521 26.7978C28.0017 26.9174 27.9268 27.0265 27.8316 27.1189C27.7365 27.2113 27.6228 27.2851 27.4973 27.3362C27.3717 27.3873 27.2367 27.4147 27.0999 27.4167C26.9631 27.4187 26.8272 27.3954 26.7 27.3481C26.5728 27.3008 26.4567 27.2304 26.3585 27.1409C26.2602 27.0514 26.1816 26.9446 26.1273 26.8266C26.0729 26.7086 26.0438 26.5817 26.0416 26.4531C26.0395 26.3245 26.0642 26.1968 26.1146 26.0772C27.951 21.7111 32.001 16.5205 35.1458 13.0709C35.3257 12.8738 35.5815 12.7519 35.8569 12.7321C36.1323 12.7123 36.4049 12.7961 36.6146 12.9651M16.0208 16.1053C15.9134 16.185 15.8238 16.2838 15.757 16.3961C15.6902 16.5084 15.6476 16.632 15.6317 16.7597C15.6157 16.8875 15.6267 17.0169 15.664 17.1407C15.7012 17.2645 15.7641 17.3801 15.849 17.4811C18.1844 20.2668 20.7344 23.8319 21.9448 26.789C22.0487 27.025 22.2466 27.2135 22.4963 27.3143C22.746 27.4151 23.0277 27.4201 23.2814 27.3284C23.535 27.2367 23.7404 27.0554 23.8538 26.8233C23.9673 26.5912 23.9797 26.3266 23.8885 26.086C22.5646 22.8508 19.8594 19.0996 17.4844 16.2689C17.3135 16.0649 17.0634 15.9331 16.7891 15.9025C16.5149 15.8718 16.2379 15.9448 16.0208 16.1053Z" fill="#ffff"/>
<path d="M6.25 28.3958H12.5V41.125H6.25V28.3958Z" fill="#ffff"/>
</svg>
