<svg viewBox="0 0 39 35" fill="none" xmlns="http://www.w3.org/2000/svg">
<g clip-path="url(#clip0_351_2305)">
<path d="M39 21.875V35H19.5V21.875H24.375V17.5H34.125V21.875H39ZM26.8125 21.875H31.6875V19.6875H26.8125V21.875ZM36.5625 28.4375H34.125V30.625H31.6875V28.4375H26.8125V30.625H24.375V28.4375H21.9375V32.8125H36.5625V28.4375ZM36.5625 24.0625H21.9375V26.25H36.5625V24.0625ZM29.8022 15.3125C29.1167 14.6176 28.3042 14.0821 27.3647 13.7061C26.4253 13.3301 25.4287 13.1364 24.375 13.125C23.3594 13.125 22.4136 13.2959 21.5376 13.6377C20.6616 13.9795 19.8872 14.4467 19.2144 15.0391C18.5415 15.6316 18.0146 16.3322 17.6338 17.1412C17.2529 17.9501 17.0625 18.7989 17.0625 19.6875C17.0625 20.7357 16.8022 21.7212 16.2817 22.6441C15.7612 23.5669 15.0249 24.3417 14.0728 24.9683C14.644 25.2304 15.1772 25.5323 15.6724 25.8741C16.1675 26.2159 16.6309 26.6032 17.0625 27.0362V32.8125C17.0625 31.9125 16.8721 31.0637 16.4912 30.2662C16.1104 29.4686 15.5898 28.7736 14.9297 28.1812C14.2695 27.5888 13.4888 27.1159 12.5874 26.7627C11.686 26.4096 10.7402 26.2387 9.75 26.25C8.73438 26.25 7.78857 26.4209 6.9126 26.7627C6.03662 27.1045 5.26221 27.5717 4.58936 28.1641C3.9165 28.7566 3.38965 29.4572 3.00879 30.2662C2.62793 31.0751 2.4375 31.9239 2.4375 32.8125H0C0 31.9808 0.126953 31.1776 0.380859 30.4029C0.634766 29.6281 0.996582 28.8933 1.46631 28.1983C1.93604 27.5033 2.50732 26.8881 3.18018 26.3526C3.85303 25.8171 4.60205 25.3557 5.42725 24.9683C4.48779 24.3531 3.75781 23.584 3.2373 22.6612C2.7168 21.7383 2.4502 20.7471 2.4375 19.6875C2.4375 18.7875 2.62793 17.9387 3.00879 17.1412C3.38965 16.3436 3.91016 15.6486 4.57031 15.0562C5.23047 14.4637 6.00488 13.9909 6.89355 13.6377C7.78223 13.2846 8.73438 13.1137 9.75 13.125C10.918 13.125 12.0161 13.3586 13.0444 13.8257C14.0728 14.2929 14.936 14.9537 15.6343 15.8082C16.1167 14.9537 16.7324 14.1903 17.4814 13.5181C18.2305 12.8459 19.0874 12.2876 20.0522 11.8433C19.1128 11.2281 18.3828 10.459 17.8623 9.53618C17.3418 8.61333 17.0752 7.62212 17.0625 6.56255C17.0625 5.66248 17.2529 4.81368 17.6338 4.01616C18.0146 3.21863 18.5352 2.52365 19.1953 1.9312C19.8555 1.33875 20.6299 0.865931 21.5186 0.512741C22.4072 0.159551 23.3594 -0.0113475 24.375 4.57764e-05C25.3779 4.57764e-05 26.3237 0.170944 27.2124 0.512741C28.1011 0.854538 28.8755 1.32166 29.5356 1.91411C30.1958 2.50656 30.7227 3.20724 31.1162 4.01616C31.5098 4.82508 31.7002 5.67387 31.6875 6.56255C31.6875 7.61072 31.4272 8.59624 30.9067 9.51909C30.3862 10.4419 29.6499 11.2167 28.6978 11.8433C29.561 12.2307 30.3418 12.7149 31.04 13.2959C31.7383 13.877 32.3286 14.5492 32.811 15.3125H29.8022ZM9.75 24.0625C10.4229 24.0625 11.0513 23.9486 11.6353 23.7207C12.2192 23.4929 12.7397 23.1796 13.1968 22.7808C13.6538 22.382 14.0029 21.9206 14.2441 21.3965C14.4854 20.8724 14.6123 20.3028 14.625 19.6875C14.625 19.0837 14.498 18.5197 14.2441 17.9957C13.9902 17.4716 13.6411 17.0044 13.1968 16.5943C12.7524 16.1841 12.2383 15.8708 11.6543 15.6543C11.0703 15.4379 10.4355 15.3239 9.75 15.3125C9.07715 15.3125 8.44873 15.4265 7.86475 15.6543C7.28076 15.8822 6.76025 16.1955 6.30322 16.5943C5.84619 16.993 5.49707 17.4545 5.25586 17.9786C5.01465 18.5026 4.8877 19.0723 4.875 19.6875C4.875 20.2914 5.00195 20.8554 5.25586 21.3794C5.50977 21.9035 5.85889 22.3707 6.30322 22.7808C6.74756 23.191 7.26172 23.5043 7.8457 23.7207C8.42969 23.9372 9.06445 24.0512 9.75 24.0625ZM19.5 6.56255C19.5 7.16639 19.627 7.73035 19.8809 8.25444C20.1348 8.77853 20.4839 9.24565 20.9282 9.65581C21.3726 10.066 21.8867 10.3793 22.4707 10.5957C23.0547 10.8122 23.6895 10.9262 24.375 10.9375C25.0479 10.9375 25.6763 10.8236 26.2603 10.5957C26.8442 10.3679 27.3647 10.0546 27.8218 9.65581C28.2788 9.25704 28.6279 8.79562 28.8691 8.27153C29.1104 7.74744 29.2373 7.17778 29.25 6.56255C29.25 5.9587 29.123 5.39474 28.8691 4.87065C28.6152 4.34656 28.2661 3.87944 27.8218 3.46928C27.3774 3.05913 26.8633 2.74581 26.2793 2.52934C25.6953 2.31287 25.0605 2.19894 24.375 2.18755C23.7021 2.18755 23.0737 2.30148 22.4897 2.52934C21.9058 2.75721 21.3853 3.07052 20.9282 3.46928C20.4712 3.86805 20.1221 4.32947 19.8809 4.85356C19.6396 5.37765 19.5127 5.94731 19.5 6.56255Z" fill="#ffff"/>
</g>
<defs>
<clipPath id="clip0_351_2305">
<rect width="39" height="35" fill="white"/>
</clipPath>
</defs>
</svg>
